<svg xmlns="http://www.w3.org/2000/svg" viewBox="0 0 12 12">
  <path d="M6.893232 6.0000044l4.921831-4.9218317c.246633-.2466565.246633-.6465474 0-.8931804-.246656-.2466564-.64657-.2466564-.893203 0L6.000004 5.1068241 1.078173.1849923c-.246657-.2466564-.646548-.2466564-.893181 0-.246633.2466565-.246656.6465474 0 .8931804l4.921832 4.9218317-4.921832 4.9218317c-.246656.2466565-.246656.6465474 0 .8931804.246657.2466564.646548.246633.893181 0l4.921831-4.9218318 4.921809 4.9218318c.246656.2466564.64657.246633.893203 0 .246633-.2466565.246633-.6465474 0-.8931804L6.893232 6.0000044z" fill="#000" fill-rule="nonzero"/>
</svg>