<svg xmlns="http://www.w3.org/2000/svg" viewBox="0 0 24 24">
  <g fill-rule="nonzero" fill="none">
    <path d="M12 0C5.3679375 0 0 5.36704687 0 12c0 6.6320625 5.36704687 12 12 12 6.6320625 0 12-5.3670469 12-12 0-6.6320625-5.3670469-12-12-12z" fill="#172B49"/>
    <circle fill="#FFEDBD" cx="12" cy="17.7421875" r="1.171875"/>
    <path d="M12 0C5.3679375 0 0 5.36704687 0 12c0 6.6320625 5.36704687 12 12 12 6.6320625 0 12-5.3670469 12-12 0-6.6320625-5.3670469-12-12-12zm0 22.125C6.40420312 22.125 1.875 17.5965469 1.875 12 1.875 6.40420312 6.40345313 1.875 12 1.875c5.5957969 0 10.125 4.52845313 10.125 10.125 0 5.5957969-4.5284531 10.125-10.125 10.125z" fill="#172B49"/>
    <path d="M12 6.0234375c-2.06775 0-3.75 1.68225-3.75 3.75 0 .5177812.41971875.9375.9375.9375.51778125 0 .9375-.4197188.9375-.9375 0-1.033875.841125-1.875 1.875-1.875s1.875.841125 1.875 1.875-.841125 1.875-1.875 1.875c-.5177812 0-.9375.4197187-.9375.9375v2.34375c0 .5177813.4197188.9375.9375.9375.5177812 0 .9375-.4197187.9375-.9375v-1.5248906c1.6155938-.4173282 2.8125-1.8871875 2.8125-3.6313594 0-2.06775-1.68225-3.75-3.75-3.75z" fill="#FFEDBD"/>
  </g>
</svg>