<svg data-name="Groupe 1" xmlns="http://www.w3.org/2000/svg" viewBox="0 0 100 100">
  <circle data-name="Oval 2" cx="50" cy="50" r="50" fill="#ffedbd"/>
  <path d="M51.6 77h-2.7a5.885 5.885 0 01-5.878-5.878V64.4a1.93 1.93 0 00-1-1.71 17.375 17.375 0 01-9.16-15.32 17.158 17.158 0 011.376-6.759 17.573 17.573 0 019.273-9.26 17.373 17.373 0 0124.126 16.016 17.383 17.383 0 01-9.116 15.3 1.978 1.978 0 00-1.048 1.733v6.725A5.884 5.884 0 0151.6 77zm-4.657-10.653v4.775a1.962 1.962 0 001.957 1.96h2.7a1.962 1.962 0 001.959-1.959v-4.776zM50.256 33.9a13.471 13.471 0 00-6.378 25.339 5.812 5.812 0 012.728 3.191H53.9a5.909 5.909 0 012.758-3.209 13.471 13.471 0 00-6.3-25.321zm20.2 35.519a1.948 1.948 0 01-1.386-.574l-3.289-3.29a1.95903937 1.95903937 0 112.77-2.771l3.29 3.29a1.959 1.959 0 01-1.385 3.345zm-40.175-.006a1.962 1.962 0 01-1.386-3.344l3.29-3.29a1.95903937 1.95903937 0 012.771 2.77l-3.29 3.29a1.946 1.946 0 01-1.389.572zm48.5-20.081h-4.659a1.9595 1.9595 0 110-3.919h4.653a1.9595 1.9595 0 110 3.919zm-52.169-.009h-4.653a1.9595 1.9595 0 110-3.919h4.653a1.9595 1.9595 0 110 3.919zm16.493-2.748a1.957 1.957 0 01-1.614-.852 1.932 1.932 0 01-.212-1.814 9.776 9.776 0 015.366-5.488 1.95969647 1.95969647 0 011.5 3.621 5.849 5.849 0 00-3.208 3.281 1.971 1.971 0 01-1.831 1.252zm24.063-14.043a1.962 1.962 0 01-1.386-3.344l3.29-3.29a1.95903937 1.95903937 0 012.771 2.77l-3.29 3.29a1.946 1.946 0 01-1.385.574zm-33.6-.006a1.943 1.943 0 01-1.385-.574l-3.283-3.29a1.95903937 1.95903937 0 112.77-2.771l3.29 3.29a1.961 1.961 0 01-1.385 3.344zm16.8-6.954a1.962 1.962 0 01-1.959-1.959v-4.654a1.9595 1.9595 0 113.919 0v4.653a1.962 1.962 0 01-1.957 1.96z" fill="#172b49"/>
</svg>